<svg width="120" height="40" viewBox="0 0 120 40" fill="none" xmlns="http://www.w3.org/2000/svg">
  <!-- bKash Brand Colors: Pink #E2136E -->
  <rect width="120" height="40" rx="8" fill="#E2136E"/>
  
  <!-- bKash Logo -->
  <g transform="translate(8, 8)">
    <!-- b -->
    <path d="M0 0h4v24h-4V0z M0 6h8c2.2 0 4 1.8 4 4s-1.8 4-4 4H0V6z M0 14h8c2.2 0 4 1.8 4 4s-1.8 4-4 4H0v-8z" fill="white"/>
    
    <!-- K -->
    <path d="M16 0h4v10l6-10h5l-7 11 7 13h-5l-6-11v11h-4V0z" fill="white"/>
    
    <!-- a -->
    <circle cx="38" cy="18" r="6" fill="white"/>
    <rect x="44" y="12" width="3" height="12" fill="white"/>
    
    <!-- s -->
    <path d="M52 14c0-2 1.5-3 3-3s3 1 3 3-1.5 3-3 3-3 1-3 3 1.5 3 3 3 3-1 3-3" stroke="white" stroke-width="2" fill="none"/>
    
    <!-- h -->
    <path d="M64 0h3v10c2-2 4-2 6 0v14h-3V16c0-1-1-2-3-2s-3 1-3 2v8h-3V0z" fill="white"/>
  </g>
  
  <!-- Mobile Icon -->
  <g transform="translate(88, 10)">
    <rect x="0" y="0" width="12" height="20" rx="2" stroke="white" stroke-width="1.5" fill="none"/>
    <rect x="2" y="3" width="8" height="10" fill="white"/>
    <circle cx="6" cy="16" r="1" fill="white"/>
  </g>
</svg>