<svg width="120" height="40" viewBox="0 0 120 40" fill="none" xmlns="http://www.w3.org/2000/svg">
  <!-- Rocket Brand Colors: Blue #1E3A8A and Red #DC2626 -->
  <defs>
    <linearGradient id="rocketGradient" x1="0" y1="0" x2="120" y2="0" gradientUnits="userSpaceOnUse">
      <stop offset="0%" stop-color="#1E3A8A"/>
      <stop offset="100%" stop-color="#DC2626"/>
    </linearGradient>
  </defs>
  
  <rect width="120" height="40" rx="8" fill="url(#rocketGradient)"/>
  
  <!-- Rocket Logo -->
  <g transform="translate(8, 8)">
    <!-- R -->
    <path d="M0 0h8c2.2 0 4 1.8 4 4s-1.8 4-4 4H4v8H0V0z M4 4v4h4V4H4z M8 8l4 8h-4l-4-8h4z" fill="white"/>
    
    <!-- o -->
    <circle cx="20" cy="12" r="6" fill="none" stroke="white" stroke-width="2"/>
    
    <!-- c -->
    <path d="M32 6c3.3 0 6 2.7 6 6s-2.7 6-6 6" stroke="white" stroke-width="2" fill="none"/>
    
    <!-- k -->
    <path d="M42 0h2v8l4-8h3l-4 9 4 7h-3l-4-7v7h-2V0z" fill="white"/>
    
    <!-- e -->
    <path d="M56 6h8M56 12h6M56 18h8M56 6v12h-2V6h2z" stroke="white" stroke-width="2"/>
    
    <!-- t -->
    <path d="M68 6h8M72 6v12h-2V6z" stroke="white" stroke-width="2"/>
  </g>
  
  <!-- Rocket Icon -->
  <g transform="translate(88, 8)">
    <path d="M6 0L3 6h6L6 0z" fill="white"/>
    <rect x="4" y="6" width="4" height="12" fill="white"/>
    <path d="M2 10h2v4H2z" fill="white"/>
    <path d="M8 10h2v4H8z" fill="white"/>
    <path d="M4 18L6 24L8 18" fill="white"/>
  </g>
</svg>