<svg width="120" height="40" viewBox="0 0 120 40" fill="none" xmlns="http://www.w3.org/2000/svg">
  <!-- Visa Brand Colors: Blue #1A1F71 and Yellow #FDB515 -->
  <rect width="120" height="40" rx="8" fill="#1A1F71"/>
  
  <!-- Visa Logo -->
  <g transform="translate(15, 8)">
    <!-- V -->
    <path d="M0 0h8l4 16L16 0h8L16 24h-4L0 0z" fill="#FDB515"/>
    
    <!-- i -->
    <rect x="28" y="0" width="4" height="4" fill="white"/>
    <rect x="28" y="8" width="4" height="16" fill="white"/>
    
    <!-- s -->
    <path d="M38 10c0-2 1.5-3 4-3s4 1 4 3-1.5 3-4 3-4 1-4 3 1.5 3 4 3 4-1 4-3" stroke="white" stroke-width="2" fill="none"/>
    
    <!-- a -->
    <circle cx="54" cy="16" r="6" fill="none" stroke="white" stroke-width="2"/>
    <rect x="60" y="10" width="3" height="14" fill="white"/>
  </g>
  
  <!-- Card Icon -->
  <g transform="translate(75, 12)">
    <rect x="0" y="0" width="20" height="16" rx="2" stroke="white" stroke-width="1" fill="none"/>
    <rect x="0" y="4" width="20" height="2" fill="white"/>
    <rect x="2" y="8" width="4" height="1" fill="white"/>
    <rect x="2" y="10" width="6" height="1" fill="white"/>
  </g>
</svg>