<svg width="120" height="40" viewBox="0 0 120 40" fill="none" xmlns="http://www.w3.org/2000/svg">
  <!-- Nagad Brand Colors: Orange #FF6600 -->
  <rect width="120" height="40" rx="8" fill="#FF6600"/>
  
  <!-- Nagad Logo -->
  <g transform="translate(10, 8)">
    <!-- N -->
    <path d="M0 0h4v16l8-16h4v24h-4V8L4 24H0V0z" fill="white"/>
    
    <!-- a -->
    <circle cx="24" cy="18" r="5" fill="none" stroke="white" stroke-width="2"/>
    <rect x="29" y="13" width="2" height="10" fill="white"/>
    
    <!-- g -->
    <circle cx="38" cy="18" r="5" fill="none" stroke="white" stroke-width="2"/>
    <path d="M43 13v15h-2v-2c-1 2-3 2-5 0" stroke="white" stroke-width="2" fill="none"/>
    
    <!-- a -->
    <circle cx="52" cy="18" r="5" fill="none" stroke="white" stroke-width="2"/>
    <rect x="57" y="13" width="2" height="10" fill="white"/>
    
    <!-- d -->
    <circle cx="66" cy="18" r="5" fill="none" stroke="white" stroke-width="2"/>
    <rect x="71" y="5" width="2" height="18" fill="white"/>
  </g>
  
  <!-- Mobile Payment Icon -->
  <g transform="translate(88, 10)">
    <rect x="0" y="0" width="12" height="20" rx="2" stroke="white" stroke-width="1.5" fill="none"/>
    <path d="M3 6h6M3 9h6M3 12h4" stroke="white" stroke-width="1"/>
    <circle cx="6" cy="16" r="1" fill="white"/>
  </g>
</svg>